<?xml version="1.0" standalone="no"?>
<!DOCTYPE svg PUBLIC "-//W3C//DTD SVG 20010904//EN"
 "http://www.w3.org/TR/2001/REC-SVG-20010904/DTD/svg10.dtd">
<svg version="1.0" xmlns="http://www.w3.org/2000/svg"
 width="333.000000pt" height="333.000000pt" viewBox="0 0 333.000000 333.000000"
 preserveAspectRatio="xMidYMid meet">
<metadata>
Created by potrace 1.14, written by Peter Selinger 2001-2017
</metadata>
<g transform="translate(0.000000,333.000000) scale(0.100000,-0.100000)"
fill="#000000" stroke="none">
<path d="M0 1665 l0 -1665 1665 0 1665 0 0 1665 0 1665 -1665 0 -1665 0 0
-1665z m1637 1449 c40 -25 57 -63 58 -125 0 -99 -50 -143 -176 -155 l-76 -6
-13 142 c-7 79 -8 146 -4 150 10 10 103 17 154 11 19 -2 45 -10 57 -17z m224
7 c4 -3 -1 -55 -10 -114 -10 -59 -15 -109 -12 -111 3 -2 24 -6 46 -10 92 -15
95 -17 95 -41 0 -13 -3 -26 -7 -28 -5 -3 -54 2 -110 11 -119 18 -110 3 -88
155 24 163 22 158 53 151 15 -4 30 -9 33 -13z m301 -63 c15 -12 13 -25 -27
-143 -44 -133 -54 -147 -94 -126 -19 11 -18 15 26 146 46 140 56 153 95 123z
m-957 -119 c28 -83 41 -109 51 -105 8 3 40 13 70 22 59 17 79 11 72 -21 -4
-20 -187 -90 -200 -77 -5 5 -28 68 -53 141 l-44 132 22 9 c12 5 27 9 34 9 6 1
28 -49 48 -110z m1189 21 c47 -25 86 -48 86 -51 0 -3 -6 -14 -14 -24 -13 -18
-16 -18 -76 14 -34 18 -63 31 -64 29 -6 -7 -26 -47 -26 -52 0 -3 22 -17 49
-31 59 -29 64 -36 48 -60 -13 -16 -16 -16 -65 9 -28 14 -55 26 -60 26 -5 0
-14 -12 -21 -27 -28 -63 -39 -73 -66 -61 -14 6 -25 17 -25 24 0 8 23 57 51
111 66 125 78 145 89 141 4 -2 47 -23 94 -48z m-1330 -109 c36 -66 66 -124 66
-129 0 -7 -42 -32 -55 -32 -5 0 -135 240 -135 250 0 10 30 29 47 30 6 0 41
-54 77 -119z m-150 -82 l68 -131 -28 -29 c-15 -16 -32 -29 -38 -29 -6 0 -46
27 -89 61 -43 33 -80 59 -82 57 -2 -2 19 -43 48 -92 54 -94 55 -104 6 -133
-26 -16 -28 -14 -148 67 l-122 83 22 23 c12 13 26 24 31 24 4 0 45 -29 90 -65
45 -35 83 -63 85 -61 2 2 -21 45 -51 95 l-55 91 32 30 c18 16 36 30 40 30 5 0
44 -27 88 -61 44 -34 82 -59 84 -57 2 1 -22 45 -53 97 l-56 93 25 19 c13 10
26 19 29 19 3 0 36 -59 74 -131z m1738 9 c40 -34 75 -63 77 -65 2 -1 -4 -12
-14 -23 -17 -19 -18 -19 -74 25 -52 41 -57 43 -73 28 -26 -24 -23 -33 29 -79
42 -36 46 -43 34 -58 -19 -23 -29 -20 -72 19 -45 41 -59 43 -78 13 -12 -20 -9
-24 39 -67 48 -43 52 -49 41 -69 -7 -14 -17 -20 -24 -15 -20 12 -152 126 -155
134 -5 11 170 218 185 218 7 1 45 -27 85 -61z m-1158 -323 c16 -106 17 -111
52 -139 60 -49 97 -148 109 -296 16 -182 -70 -350 -180 -350 -31 0 -45 7 -76
39 -55 58 -81 135 -87 260 -7 153 18 243 93 336 29 35 34 52 45 135 11 95 19
134 25 128 2 -2 10 -52 19 -113z m427 -16 c12 -105 15 -114 51 -159 21 -26 47
-69 58 -95 66 -155 40 -393 -55 -492 -37 -38 -47 -43 -85 -43 -38 0 -48 5 -85
43 -78 81 -105 244 -70 412 18 85 57 168 89 189 20 13 27 33 46 136 13 66 26
120 30 120 4 0 13 -50 21 -111z m-910 -406 c0 -38 6 -88 12 -113 11 -42 14
-45 52 -50 131 -18 255 -204 255 -383 0 -161 -114 -204 -232 -86 -91 91 -143
245 -155 467 -6 102 2 158 27 200 30 48 40 40 41 -35z m1361 50 c42 -49 57
-172 35 -291 -9 -48 -21 -114 -27 -147 -30 -177 -198 -355 -288 -304 -63 35
-84 111 -62 221 12 65 56 161 97 215 38 49 110 93 154 93 36 0 37 1 48 48 7
26 12 77 13 115 1 71 5 78 30 50z m-2030 -324 c26 -56 31 -62 90 -88 l63 -29
-65 -32 c-56 -28 -68 -38 -83 -75 -35 -85 -41 -86 -72 -17 -26 58 -32 64 -86
88 -33 15 -59 30 -59 35 0 4 26 20 59 34 54 25 60 31 84 86 14 32 29 59 34 59
4 -1 20 -28 35 -61z m2740 0 c26 -56 31 -62 90 -88 l62 -29 -62 -31 c-55 -28
-65 -38 -92 -91 -17 -33 -32 -60 -35 -60 -2 0 -16 27 -31 61 -26 57 -32 63
-86 86 -32 14 -58 28 -58 32 0 3 26 20 58 36 50 26 61 37 84 88 15 31 31 57
35 57 5 -1 20 -28 35 -61z m-1314 -245 c61 -30 81 -55 118 -149 48 -122 96
-172 189 -197 156 -42 215 -243 112 -380 -69 -92 -198 -117 -293 -56 -105 67
-152 83 -244 82 -90 0 -77 5 -244 -83 -70 -37 -104 -39 -172 -7 -126 58 -179
205 -120 331 34 74 71 102 213 160 56 23 84 56 130 150 40 85 105 160 144 168
65 12 117 6 167 -19z m-953 -724 c41 -26 69 -81 60 -120 -4 -17 -11 -33 -16
-36 -18 -11 -49 28 -49 61 0 36 -21 60 -45 51 -21 -8 -19 -43 6 -83 61 -99
-22 -192 -119 -133 -61 37 -89 113 -58 155 14 19 15 19 35 1 13 -12 21 -31 21
-51 0 -36 31 -71 55 -62 21 9 19 40 -5 87 -29 56 -26 104 6 129 34 26 68 27
109 1z m1874 -66 c69 -37 128 -69 130 -70 7 -7 -32 -44 -45 -44 -7 0 -29 8
-49 17 l-36 17 -31 -31 -32 -32 19 -40 c17 -40 17 -42 0 -61 -10 -11 -23 -20
-30 -20 -10 0 -125 251 -125 274 0 16 42 56 58 56 8 0 72 -30 141 -66z m-1671
-97 c81 -53 95 -69 94 -108 -1 -40 -28 -69 -64 -69 -25 0 -28 -3 -23 -20 8
-24 -26 -130 -41 -130 -5 0 -20 9 -32 20 -20 19 -20 22 -7 55 21 49 19 72 -10
91 -14 9 -27 15 -29 13 -2 -2 -15 -23 -30 -46 -30 -48 -35 -50 -66 -25 l-21
17 76 123 c42 67 79 122 82 122 2 0 35 -19 71 -43z m1381 -44 c-11 -43 -17
-83 -15 -89 2 -6 43 -25 92 -44 l87 -33 -38 -23 -38 -22 -55 24 c-86 38 -101
30 -62 -34 11 -18 20 -36 20 -41 0 -12 -52 -33 -61 -24 -12 12 -139 233 -139
242 0 7 43 31 55 31 2 0 16 -22 32 -50 15 -27 31 -50 34 -50 3 0 12 33 19 73
7 39 15 78 18 85 5 14 54 42 63 36 4 -2 -2 -39 -12 -81z m-1181 -59 c12 -4 22
-12 22 -18 0 -15 -98 -248 -109 -259 -7 -7 -41 4 -59 18 -3 2 83 216 99 248
11 19 14 19 47 11z m973 -139 c21 -72 38 -135 39 -141 0 -6 -19 -16 -41 -23
l-42 -13 -80 79 c-86 85 -84 86 -48 -39 11 -37 16 -69 13 -71 -4 -3 -19 -7
-34 -11 -25 -6 -28 -3 -37 31 -6 21 -24 83 -40 138 -15 55 -27 103 -24 107 2
4 20 12 41 17 l37 11 84 -83 c46 -45 81 -73 77 -62 -11 31 -46 159 -46 168 0
9 41 27 54 23 5 -1 26 -60 47 -131z m-753 70 c3 -3 -24 -170 -34 -212 -5 -20
0 -22 70 -34 58 -9 76 -15 76 -28 -1 -40 -12 -43 -118 -24 -120 20 -113 7 -82
179 26 140 24 136 57 128 16 -4 29 -8 31 -9z m342 -34 c14 -28 110 -265 110
-273 0 -5 -16 -8 -35 -8 -32 0 -37 4 -51 40 -16 39 -17 40 -64 40 -46 0 -49
-1 -55 -32 -4 -18 -12 -39 -17 -46 -11 -13 -68 -17 -68 -4 0 5 20 71 44 147
31 100 49 141 62 146 34 13 63 9 74 -10z"/>
<path d="M1496 3071 c-6 -9 11 -171 18 -179 3 -2 21 -1 41 2 102 20 88 186
-16 186 -21 0 -40 -4 -43 -9z"/>
<path d="M2577 675 c18 -38 37 -45 47 -18 5 11 -1 23 -16 35 -38 29 -50 23
-31 -17z"/>
<path d="M955 560 c-15 -30 -15 -33 2 -46 29 -22 53 -27 69 -13 22 18 13 48
-23 70 l-32 20 -16 -31z"/>
<path d="M1726 337 c-3 -14 -9 -32 -12 -41 -5 -12 0 -16 20 -16 30 0 34 20 12
59 l-13 24 -7 -26z"/>
</g>
</svg>
